<?xml version="1.0" encoding="utf-8"?>
<!-- Generator: Adobe Illustrator 24.1.3, SVG Export Plug-In . SVG Version: 6.00 Build 0)  -->
<svg version="1.1" id="Layer_1" xmlns="http://www.w3.org/2000/svg" xmlns:xlink="http://www.w3.org/1999/xlink" x="0px" y="0px"
	 viewBox="0 0 11 11" style="enable-background:new 0 0 11 11;" xml:space="preserve">
<style type="text/css">
	.st0{fill:#27B793;}
	.st1{fill:#0075A1;}
</style>
<g>
	<path class="st0" d="M5.5,7.09l2.51,3.85c0.32-0.89,0.12-2.18,0.12-2.18C8.01,7.51,7.24,6.08,7.1,5.81
		C6.81,6.1,6.51,6.36,6.22,6.58C5.99,6.77,5.74,6.94,5.5,7.09z"/>
	<path class="st0" d="M4.2,4.52C4.54,4.22,4.92,4,5.29,3.8c0.07-0.05,0.13-0.09,0.2-0.14c-0.2-0.16-0.05-0.03-0.23-0.2
		C4.9,3.12,4.58,2.76,4.31,2.35C4.02,1.9,3.95,1.3,4.3,0.86c0.08-0.11,0.2-0.21,0.32-0.27c0.11-0.06,0.27-0.1,0.4-0.09
		C5.16,0.5,5.29,0.55,5.41,0.61c0.05,0.02,0.47,0.3,0.47,0.3v0.01L6,0.79c0.04-0.04,0.1-0.09,0.16-0.14
		C6.3,0.54,6.49,0.42,6.69,0.39C6.97,0.35,7.3,0.46,7.59,0.96c0,0-0.02-0.21-0.18-0.43l0,0C7.36,0.44,7.29,0.36,7.21,0.29
		C7.19,0.27,7.17,0.26,7.15,0.25c0,0,0,0,0,0c0,0-0.02-0.01-0.06-0.03C6.78,0.06,6.38,0.18,6.13,0.4C6.1,0.42,5.86,0.63,5.88,0.67
		c-0.07-0.15-0.28-0.27-0.4-0.36C5.29,0.19,5.11,0.13,4.89,0.08C4.76,0.06,4.62,0.05,4.49,0.09C3.9,0.24,3.44,0.91,3.23,1.47
		C3.09,1.86,3.04,2.28,3.09,2.7c0.06,0.47,0.22,0.9,0.39,1.33c0.02,0.05,0.37,0.85,0.4,0.81c0,0,0.01-0.01,0.03-0.03
		C4,4.71,4.1,4.62,4.2,4.52z"/>
	<path class="st1" d="M7.82,1.41C7.79,1.36,7.71,1.29,7.69,1.23c0.2,0.55-0.32,1.29-0.32,1.29C7.17,2.77,6.95,2.98,6.71,3.16
		c-0.76,0.6-1.67,0.85-2.39,1.5c-0.89,0.8-1.29,1.75-1.52,3C2.63,8.61,2.68,9.75,3,10.65c-0.05-0.14,0.06-0.52,0.08-0.67
		c0.03-0.2,0.07-0.4,0.12-0.59c0.14-0.51,0.39-1.02,0.7-1.42c0.39-0.49,0.95-0.7,1.44-1c0.27-0.16,0.52-0.34,0.77-0.54
		c0.83-0.67,1.73-1.51,2.07-2.65C8.37,3.17,8.3,2.51,8.08,1.93C8.01,1.75,7.92,1.57,7.82,1.41z"/>
</g>
</svg>
