<?xml version="1.0" encoding="utf-8"?>
<!-- Generator: Adobe Illustrator 24.1.3, SVG Export Plug-In . SVG Version: 6.00 Build 0)  -->
<svg version="1.1" id="Capa_1" xmlns="http://www.w3.org/2000/svg" xmlns:xlink="http://www.w3.org/1999/xlink" x="0px" y="0px"
	 viewBox="0 0 490.9 490.9" style="enable-background:new 0 0 490.9 490.9;" xml:space="preserve">
<style type="text/css">
	.st0{fill:#E5E5E5;}
</style>
<g>
	<g>
		<path class="st0" d="M0,245.4c0,135.3,110.1,245.4,245.4,245.4s245.4-110.1,245.4-245.4S380.8,0,245.4,0S0,110.1,0,245.4z
			 M152.4,238l128-128c4.2-4.2,10.9-4.2,15.1,0s4.2,10.9,0,15.1L175.1,245.6L295.6,366c4.2,4.2,4.2,10.9,0,15.1
			c-2.1,2.1-4.8,3.1-7.6,3.1c-2.7,0-5.5-1-7.6-3.1l-128-128C148.3,248.9,148.3,242.2,152.4,238z"/>
	</g>
</g>
</svg>
