<?xml version="1.0" encoding="utf-8"?>
<!-- Generator: Adobe Illustrator 24.1.3, SVG Export Plug-In . SVG Version: 6.00 Build 0)  -->
<svg version="1.1" id="Layer_1" xmlns="http://www.w3.org/2000/svg" xmlns:xlink="http://www.w3.org/1999/xlink" x="0px" y="0px"
	 viewBox="0 0 198 55" style="enable-background:new 0 0 198 55;" xml:space="preserve">
<style type="text/css">
	.st0{fill:#0075A1;}
	.st1{fill:#27B793;}
	.st2{font-family:'NexaBold';}
	.st3{font-size:13.5366px;}
	.st4{fill:#231F20;}
</style>
<g>
	<g>
		<path class="st0" d="M36.78,13.23h13.06v1.56l-8.81,12.94h8.81v3.15H36.57v-1.92l8.62-12.61h-8.4V13.23z"/>
		<path class="st0" d="M54.33,25.77c0.19,1.54,1.48,2.65,3.57,2.65c1.09,0,2.52-0.43,3.2-1.16l1.89,1.94
			c-1.26,1.36-3.32,2.02-5.14,2.02c-4.13,0-6.58-2.65-6.58-6.63c0-3.78,2.48-6.51,6.36-6.51c4,0,6.5,2.57,6.04,7.69H54.33z
			 M60.83,23.22c-0.19-1.61-1.41-2.42-3.11-2.42c-1.6,0-2.91,0.81-3.35,2.42H60.83z"/>
		<path class="st0" d="M74.76,30.89v-6.51c0-1.89-0.99-3.33-2.89-3.33c-1.82,0-3.06,1.59-3.06,3.48v6.36h-2.94V18.43h2.65l0.19,1.69
			c1.21-1.24,2.43-1.87,3.93-1.87c2.82,0,5.07,2.19,5.07,6.1v6.53H74.76z"/>
		<path class="st1" d="M97.19,22.16c-0.05,4.57-2.74,9.13-8.71,9.13c-5.97,0-8.74-4.46-8.74-9.1c0-4.64,2.86-9.31,8.74-9.31
			C94.32,12.88,97.24,17.54,97.19,22.16z M82.89,22.23c0.07,2.9,1.58,6,5.58,6c4,0,5.51-3.13,5.56-6.03
			c0.05-2.98-1.55-6.31-5.56-6.31C84.47,15.9,82.82,19.26,82.89,22.23z"/>
		<path class="st1" d="M108.13,30.89v-6.51c0-1.89-0.99-3.33-2.89-3.33c-1.82,0-3.06,1.59-3.06,3.48v6.36h-2.94V18.43h2.65
			l0.19,1.69c1.21-1.24,2.43-1.87,3.93-1.87c2.81,0,5.07,2.19,5.07,6.1v6.53H108.13z"/>
		<path class="st1" d="M123.9,29.3c-1.38,1.41-2.84,1.97-4.61,1.97c-3.47,0-6.36-2.17-6.36-6.58c0-4.41,2.89-6.58,6.36-6.58
			c1.7,0,3.01,0.5,4.32,1.84l-1.87,2.04c-0.7-0.66-1.58-0.98-2.4-0.98c-1.99,0-3.45,1.51-3.45,3.68c0,2.37,1.55,3.63,3.4,3.63
			c0.95,0,1.89-0.28,2.62-1.03L123.9,29.3z"/>
		<path class="st1" d="M137.35,24.68c0,3.58-2.35,6.48-6.24,6.48c-3.88,0-6.21-2.9-6.21-6.48c0-3.56,2.38-6.48,6.19-6.48
			C134.9,18.2,137.35,21.13,137.35,24.68z M127.86,24.68c0,1.89,1.09,3.66,3.25,3.66s3.25-1.77,3.25-3.66
			c0-1.87-1.26-3.68-3.25-3.68C128.98,21,127.86,22.82,127.86,24.68z"/>
		<path class="st0" d="M142.81,29.3c0,2.4-3.49,2.4-3.49,0C139.31,26.9,142.81,26.9,142.81,29.3z"/>
		<path class="st0" d="M148.49,14.95c0,2.4-3.49,2.4-3.49,0S148.49,12.55,148.49,14.95z M145.26,18.4v12.48h2.96V18.4H145.26z"/>
		<path class="st0" d="M163.05,24.68c0,3.58-2.35,6.48-6.24,6.48c-3.88,0-6.21-2.9-6.21-6.48c0-3.56,2.38-6.48,6.19-6.48
			C160.6,18.2,163.05,21.13,163.05,24.68z M153.56,24.68c0,1.89,1.09,3.66,3.25,3.66c2.16,0,3.25-1.77,3.25-3.66
			c0-1.87-1.26-3.68-3.25-3.68C154.67,21,153.56,22.82,153.56,24.68z"/>
	</g>
	<g>
		<path class="st1" d="M14.16,35L26,53.12c1.53-4.21,0.54-10.26,0.54-10.26c-0.58-5.87-4.16-12.61-4.86-13.88
			c-1.36,1.36-2.78,2.56-4.1,3.62C16.45,33.49,15.3,34.3,14.16,35z"/>
		<path class="st1" d="M8.05,22.9c1.59-1.43,3.37-2.47,5.13-3.42c0.33-0.21,0.64-0.43,0.92-0.66c-0.93-0.73-0.23-0.14-1.1-0.95
			c-1.67-1.57-3.15-3.29-4.43-5.21c-1.39-2.1-1.69-4.92-0.05-7.01c0.39-0.5,0.96-1.01,1.51-1.3c0.54-0.28,1.28-0.46,1.89-0.43
			c0.64,0.03,1.25,0.25,1.83,0.54c0.22,0.11,2.22,1.4,2.21,1.4V5.9L16.5,5.3c0.21-0.2,0.47-0.44,0.78-0.67
			c0.66-0.52,1.55-1.04,2.48-1.22c1.33-0.19,2.88,0.33,4.27,2.71c0,0-0.11-0.97-0.85-2.04l0,0c-0.26-0.44-0.6-0.81-0.98-1.12
			c-0.09-0.07-0.18-0.14-0.28-0.2c0,0,0,0,0,0c0,0-0.1-0.07-0.27-0.15c-1.45-0.71-3.32-0.14-4.52,0.87
			c-0.11,0.1-1.25,1.09-1.16,1.29c-0.32-0.72-1.31-1.26-1.91-1.68c-0.88-0.61-1.73-0.9-2.77-1.11C10.66,1.85,10.01,1.84,9.38,2
			c-2.77,0.74-4.93,3.88-5.9,6.49c-0.69,1.85-0.93,3.83-0.7,5.79c0.27,2.22,1.05,4.22,1.86,6.27c0.1,0.26,1.72,3.99,1.9,3.81
			c0,0,0.04-0.04,0.12-0.12C7.1,23.79,7.56,23.34,8.05,22.9z"/>
		<path class="st0" d="M25.09,8.23c-0.16-0.25-0.53-0.58-0.63-0.86c0.94,2.59-1.52,6.09-1.52,6.09c-0.9,1.15-1.96,2.14-3.07,3.02
			c-3.56,2.82-7.86,4.01-11.27,7.08c-4.17,3.76-6.09,8.25-7.14,14.12c-0.8,4.46-0.6,9.84,0.91,14.07c-0.23-0.64,0.29-2.44,0.4-3.14
			c0.14-0.94,0.31-1.87,0.55-2.78c0.64-2.4,1.83-4.83,3.32-6.7c1.83-2.31,4.45-3.3,6.79-4.7c1.25-0.75,2.46-1.6,3.62-2.53
			c3.93-3.14,8.17-7.13,9.77-12.48c0.87-2.9,0.54-6.02-0.52-8.74C25.97,9.82,25.57,8.98,25.09,8.23z"/>
	</g>
	<text transform="matrix(0.9622 0 0 1 70.2681 47.3455)"><tspan x="0" y="0" class="st0 st2 st3">Integrative</tspan><tspan x="70.51" y="0" class="st4 st2 st3"> </tspan><tspan x="73.25" y="0" class="st1 st2 st3">Oncology</tspan></text>
</g>
</svg>
