<?xml version="1.0" encoding="utf-8"?>
<!-- Generator: Adobe Illustrator 24.1.3, SVG Export Plug-In . SVG Version: 6.00 Build 0)  -->
<svg version="1.1" id="Layer_1" xmlns="http://www.w3.org/2000/svg" xmlns:xlink="http://www.w3.org/1999/xlink" x="0px" y="0px"
	 viewBox="0 0 198 55" style="enable-background:new 0 0 198 55;" xml:space="preserve">
<style type="text/css">
	.st0{fill:#0075A1;}
	.st1{fill:#27B793;}
	.st2{enable-background:new    ;}
	.st3{fill:#231F20;}
	.st4{font-family:'NexaBold';}
	.st5{font-size:13.5366px;}
</style>
<g>
	<g>
		<path class="st0" d="M36.8,13.2h13.1v1.6L41,27.7h8.8v3.1H36.6V29l8.6-12.6h-8.4L36.8,13.2L36.8,13.2z"/>
		<path class="st0" d="M54.3,25.8c0.2,1.5,1.5,2.6,3.6,2.6c1.1,0,2.5-0.4,3.2-1.2l1.9,1.9c-1.3,1.4-3.3,2-5.1,2
			c-4.1,0-6.6-2.6-6.6-6.6c0-3.8,2.5-6.5,6.4-6.5c4,0,6.5,2.6,6,7.7H54.3z M60.8,23.2c-0.2-1.6-1.4-2.4-3.1-2.4
			c-1.6,0-2.9,0.8-3.3,2.4H60.8z"/>
		<path class="st0" d="M74.8,30.9v-6.5c0-1.9-1-3.3-2.9-3.3c-1.8,0-3.1,1.6-3.1,3.5v6.4h-2.9V18.4h2.7l0.2,1.7
			c1.2-1.2,2.4-1.9,3.9-1.9c2.8,0,5.1,2.2,5.1,6.1v6.5L74.8,30.9L74.8,30.9z"/>
		<path class="st1" d="M97.2,22.2c-0.1,4.6-2.7,9.1-8.7,9.1s-8.7-4.5-8.7-9.1s2.9-9.3,8.7-9.3C94.3,12.9,97.2,17.5,97.2,22.2z
			 M82.9,22.2c0.1,2.9,1.6,6,5.6,6s5.5-3.1,5.6-6c0.1-3-1.6-6.3-5.6-6.3C84.5,15.9,82.8,19.3,82.9,22.2z"/>
		<path class="st1" d="M108.1,30.9v-6.5c0-1.9-1-3.3-2.9-3.3c-1.8,0-3.1,1.6-3.1,3.5v6.4h-2.9V18.4h2.7l0.2,1.7
			c1.2-1.2,2.4-1.9,3.9-1.9c2.8,0,5.1,2.2,5.1,6.1v6.5L108.1,30.9L108.1,30.9z"/>
		<path class="st1" d="M123.9,29.3c-1.4,1.4-2.8,2-4.6,2c-3.5,0-6.4-2.2-6.4-6.6s2.9-6.6,6.4-6.6c1.7,0,3,0.5,4.3,1.8l-1.9,2
			c-0.7-0.7-1.6-1-2.4-1c-2,0-3.4,1.5-3.4,3.7c0,2.4,1.6,3.6,3.4,3.6c0.9,0,1.9-0.3,2.6-1L123.9,29.3z"/>
		<path class="st1" d="M137.4,24.7c0,3.6-2.4,6.5-6.2,6.5c-3.9,0-6.2-2.9-6.2-6.5c0-3.6,2.4-6.5,6.2-6.5S137.4,21.1,137.4,24.7z
			 M127.9,24.7c0,1.9,1.1,3.7,3.3,3.7s3.3-1.8,3.3-3.7c0-1.9-1.3-3.7-3.3-3.7C129,21,127.9,22.8,127.9,24.7z"/>
		<path class="st0" d="M142.8,29.3c0,2.4-3.5,2.4-3.5,0C139.3,26.9,142.8,26.9,142.8,29.3z"/>
		<path class="st0" d="M148.5,14.9c0,2.4-3.5,2.4-3.5,0S148.5,12.6,148.5,14.9z M145.3,18.4v12.5h3V18.4H145.3z"/>
		<path class="st0" d="M163.1,24.7c0,3.6-2.4,6.5-6.2,6.5c-3.9,0-6.2-2.9-6.2-6.5c0-3.6,2.4-6.5,6.2-6.5
			C160.6,18.2,163.1,21.1,163.1,24.7z M153.6,24.7c0,1.9,1.1,3.7,3.3,3.7s3.3-1.8,3.3-3.7c0-1.9-1.3-3.7-3.3-3.7
			C154.7,21,153.6,22.8,153.6,24.7z"/>
	</g>
	<g>
		<path class="st1" d="M14.2,35L26,53.1c1.5-4.2,0.5-10.3,0.5-10.3C26,37,22.4,30.3,21.7,29c-1.4,1.4-2.8,2.6-4.1,3.6
			C16.5,33.5,15.3,34.3,14.2,35z"/>
		<path class="st1" d="M8.1,22.9c1.6-1.4,3.4-2.5,5.1-3.4c0.3-0.2,0.6-0.4,0.9-0.7c-0.9-0.7-0.2-0.1-1.1-1c-1.7-1.6-3.1-3.3-4.4-5.2
			c-1.4-2.1-1.7-4.9-0.1-7c0.4-0.5,1-1,1.5-1.3c0.5-0.3,1.3-0.5,1.9-0.4c0.6,0,1.3,0.2,1.8,0.5C14,4.6,16,5.9,16,5.9v0l0.5-0.6
			c0.2-0.2,0.5-0.4,0.8-0.7c0.7-0.5,1.5-1,2.5-1.2c1.3-0.2,2.9,0.3,4.3,2.7c0,0-0.1-1-0.9-2l0,0c-0.3-0.4-0.6-0.8-1-1.1
			c-0.1-0.1-0.2-0.1-0.3-0.2l0,0c0,0-0.1-0.1-0.3-0.2c-1.5-0.7-3.3-0.1-4.5,0.9C17,3.6,15.9,4.6,16,4.8c-0.3-0.7-1.3-1.3-1.9-1.7
			c-0.9-0.6-1.7-0.9-2.8-1.1C10.7,1.9,10,1.8,9.4,2C6.6,2.7,4.5,5.9,3.5,8.5c-0.7,1.9-0.9,3.8-0.7,5.8c0.3,2.2,1,4.2,1.9,6.3
			c0.1,0.3,1.7,4,1.9,3.8c0,0,0,0,0.1-0.1C7.1,23.8,7.6,23.3,8.1,22.9z"/>
		<path class="st0" d="M25.1,8.2c-0.2-0.3-0.5-0.6-0.6-0.9c0.9,2.6-1.5,6.1-1.5,6.1c-0.9,1.1-2,2.1-3.1,3c-3.6,2.8-7.9,4-11.3,7.1
			c-4.2,3.8-6.1,8.3-7.1,14.1c-0.8,4.5-0.6,9.8,0.9,14.1c-0.2-0.6,0.3-2.4,0.4-3.1c0.1-0.9,0.3-1.9,0.5-2.8C4,43.4,5.2,41,6.6,39.1
			c1.8-2.3,4.4-3.3,6.8-4.7c1.3-0.8,2.5-1.6,3.6-2.5c3.9-3.1,8.2-7.1,9.8-12.5c0.9-2.9,0.5-6-0.5-8.7C26,9.8,25.6,9,25.1,8.2z"/>
	</g>
	<g class="st2">
		<path class="st0" d="M70.9,47.3v-9.5h1.7v9.5H70.9z"/>
		<path class="st0" d="M78.9,47.3v-3.5c0-1-0.5-1.8-1.6-1.8c-1,0-1.6,0.9-1.6,1.9v3.4h-1.6v-6.7h1.4l0.1,0.9c0.7-0.7,1.3-1,2.1-1
			c1.5,0,2.7,1.2,2.7,3.3v3.5H78.9z"/>
		<path class="st0" d="M83.8,38.8v1.9h1.8v1.4h-1.8V45c0,0.6,0.3,0.9,0.8,0.9c0.2,0,0.5-0.1,0.8-0.2l0.4,1.4
			c-0.5,0.2-0.8,0.3-1.3,0.3c-1.4,0.1-2.3-0.8-2.3-2.4v-2.9H81v-1.4h1.2V39L83.8,38.8z"/>
		<path class="st0" d="M88.1,44.6c0.1,0.8,0.8,1.4,1.9,1.4c0.6,0,1.4-0.2,1.7-0.6l1,1c-0.7,0.7-1.8,1.1-2.8,1.1
			c-2.2,0-3.5-1.4-3.5-3.6c0-2,1.3-3.5,3.4-3.5c2.1,0,3.5,1.4,3.2,4.1H88.1z M91.6,43.2c-0.1-0.9-0.8-1.3-1.7-1.3
			c-0.9,0-1.6,0.4-1.8,1.3H91.6z"/>
		<path class="st0" d="M99.4,40l1.2,0.9l-0.7,0.9c0.5,0.6,0.7,1.2,0.7,2c0,0.8-0.3,2-1.4,2.5c1.1,0.6,1.3,1.4,1.3,2.2
			c0,1.8-1.4,3-3.2,3s-3.3-1.2-3.3-3h1.6c0,0.9,0.8,1.4,1.7,1.4s1.6-0.5,1.6-1.4c0-0.9-0.8-1.3-1.6-1.3c-2,0-3.3-1.3-3.3-3.4
			c0-2.1,1.5-3.4,3.3-3.4c0.5,0,1,0.1,1.5,0.4L99.4,40z M95.6,43.8c0,1.2,0.8,1.9,1.7,1.9c0.9,0,1.7-0.7,1.7-1.9S98.2,42,97.3,42
			C96.3,42,95.6,42.7,95.6,43.8z"/>
		<path class="st0" d="M103,40.7l0.1,0.8c0.5-0.8,1.2-0.9,1.8-0.9c0.7,0,1.3,0.3,1.7,0.6l-0.7,1.4c-0.3-0.3-0.6-0.4-1.1-0.4
			c-0.8,0-1.6,0.5-1.6,1.7v3.5h-1.6v-6.7H103z"/>
		<path class="st0" d="M112.3,40.7h1.5v6.7h-1.5l-0.1-1c-0.4,0.8-1.4,1.2-2.1,1.2c-1.9,0-3.3-1.2-3.3-3.5c0-2.3,1.5-3.5,3.3-3.5
			c0.9,0,1.7,0.4,2,1.1L112.3,40.7z M108.4,44c0,1.3,0.8,2,1.9,2c2.5,0,2.5-4,0-4C109.3,42,108.4,42.7,108.4,44z"/>
		<path class="st0" d="M117.1,38.8v1.9h1.8v1.4h-1.8V45c0,0.6,0.3,0.9,0.8,0.9c0.2,0,0.5-0.1,0.8-0.2l0.4,1.4
			c-0.5,0.2-0.8,0.3-1.3,0.3c-1.4,0.1-2.3-0.8-2.3-2.4v-2.9h-1.2v-1.4h1.2V39L117.1,38.8z"/>
		<path class="st0" d="M121.8,38.8c0,1.3-1.9,1.3-1.9,0S121.8,37.5,121.8,38.8z M120,40.6v6.7h1.6v-6.7H120z"/>
		<path class="st0" d="M129.7,40.7l-2.7,6.7h-1.7l-2.8-6.7h1.7l0.9,2.2l1,2.8l1-2.8l0.9-2.2H129.7z"/>
		<path class="st0" d="M131.8,44.6c0.1,0.8,0.8,1.4,1.9,1.4c0.6,0,1.4-0.2,1.7-0.6l1,1c-0.7,0.7-1.8,1.1-2.8,1.1
			c-2.2,0-3.5-1.4-3.5-3.6c0-2,1.3-3.5,3.4-3.5c2.1,0,3.5,1.4,3.2,4.1H131.8z M135.3,43.2c-0.1-0.9-0.8-1.3-1.7-1.3
			c-0.9,0-1.6,0.4-1.8,1.3H135.3z"/>
	</g>
	<text transform="matrix(0.9622 0 0 1 138.1128 47.3457)" class="st3 st4 st5"> </text>
	<g class="st2">
		<path class="st1" d="M150.4,42.7c0,2.5-1.5,4.9-4.7,4.9s-4.7-2.4-4.7-4.9s1.5-5,4.7-5C148.8,37.7,150.4,40.2,150.4,42.7z
			 M142.7,42.7c0,1.6,0.8,3.2,3,3.2c2.1,0,3-1.7,3-3.2c0-1.6-0.8-3.4-3-3.4C143.5,39.3,142.6,41.1,142.7,42.7z"/>
		<path class="st1" d="M156.2,47.3v-3.5c0-1-0.5-1.8-1.6-1.8c-1,0-1.6,0.9-1.6,1.9v3.4h-1.6v-6.7h1.4l0.1,0.9c0.7-0.7,1.3-1,2.1-1
			c1.5,0,2.7,1.2,2.7,3.3v3.5H156.2z"/>
		<path class="st1" d="M164.7,46.5c-0.7,0.8-1.5,1.1-2.5,1.1c-1.9,0-3.4-1.2-3.4-3.5c0-2.4,1.5-3.5,3.4-3.5c0.9,0,1.6,0.3,2.3,1
			l-1,1.1c-0.4-0.4-0.8-0.5-1.3-0.5c-1.1,0-1.9,0.8-1.9,2c0,1.3,0.8,1.9,1.8,1.9c0.5,0,1-0.1,1.4-0.6L164.7,46.5z"/>
		<path class="st1" d="M171.9,44c0,1.9-1.3,3.5-3.3,3.5s-3.3-1.6-3.3-3.5c0-1.9,1.3-3.5,3.3-3.5C170.6,40.5,171.9,42.1,171.9,44z
			 M166.8,44c0,1,0.6,2,1.7,2s1.7-0.9,1.7-2c0-1-0.7-2-1.7-2C167.4,42,166.8,43,166.8,44z"/>
		<path class="st1" d="M174.6,37.9v9.5H173v-9.5H174.6z"/>
		<path class="st1" d="M182.4,44c0,1.9-1.3,3.5-3.3,3.5c-2.1,0-3.3-1.6-3.3-3.5c0-1.9,1.3-3.5,3.3-3.5S182.4,42.1,182.4,44z
			 M177.3,44c0,1,0.6,2,1.7,2c1.2,0,1.7-0.9,1.7-2c0-1-0.7-2-1.7-2C177.9,42,177.3,43,177.3,44z"/>
		<path class="st1" d="M188.5,40l1.2,0.9l-0.7,0.9c0.5,0.6,0.7,1.2,0.7,2c0,0.8-0.3,2-1.4,2.5c1.1,0.6,1.3,1.4,1.3,2.2
			c0,1.8-1.4,3-3.2,3s-3.3-1.2-3.3-3h1.6c0,0.9,0.8,1.4,1.7,1.4s1.6-0.5,1.6-1.4c0-0.9-0.8-1.3-1.6-1.3c-2,0-3.3-1.3-3.3-3.4
			c0-2.1,1.5-3.4,3.3-3.4c0.5,0,1,0.1,1.5,0.4L188.5,40z M184.7,43.8c0,1.2,0.8,1.9,1.7,1.9c0.9,0,1.7-0.7,1.7-1.9s-0.8-1.9-1.7-1.9
			C185.5,42,184.7,42.7,184.7,43.8z"/>
		<path class="st1" d="M197.2,40.7l-3.9,9.5h-1.7l1.2-2.9l-2.6-6.6h1.9l1,2.9l0.6,1.9l0.7-1.8l1.2-2.9H197.2z"/>
	</g>
</g>
</svg>
